<svg xmlns="http://www.w3.org/2000/svg" viewBox="0 0 32 32" width="32" height="32" fill="none">
<path fill="currentColor" d="M23.2229 31.9998C22.8187 31.9998 22.4311 31.8313 22.1454 31.5312C21.8596 31.2312 21.6991 30.8242 21.6991 30.3998V26.2398C21.7464 25.7613 21.6976 25.2777 21.5559 24.8202C21.4142 24.3627 21.1826 23.9415 20.8762 23.5838C20.6865 23.3678 20.5571 23.1011 20.5023 22.8129C20.4474 22.5248 20.4692 22.2263 20.5652 21.9503C20.6612 21.6743 20.8278 21.4314 21.0466 21.2482C21.2654 21.065 21.5281 20.9486 21.8057 20.9118C25.5238 20.4478 28.9524 19.1998 28.9524 12.4318C28.9536 11.168 28.5983 9.93202 27.9314 8.87984C27.3161 7.91125 27.0914 6.72603 27.3067 5.58384C27.444 4.83876 27.444 4.07293 27.3067 3.32784C26.1657 3.73293 25.0913 4.32124 24.1219 5.07184C23.9386 5.20851 23.7288 5.3009 23.5075 5.34239C23.2862 5.38388 23.0589 5.37345 22.8419 5.31184C20.092 4.49594 17.1805 4.49594 14.4305 5.31184C14.2135 5.37345 13.9862 5.38388 13.7649 5.34239C13.5436 5.3009 13.3338 5.20851 13.1505 5.07184C12.1752 4.31255 11.0894 3.72363 9.93526 3.32784C9.79035 4.07215 9.79035 4.83954 9.93526 5.58384C10.135 6.74041 9.90015 7.93325 9.28002 8.91184C8.61604 9.9714 8.2612 11.2115 8.25907 12.4798C8.25907 18.7038 11.1238 20.3678 15.421 20.9438C15.7022 20.9805 15.968 21.0987 16.1888 21.2852C16.4095 21.4718 16.5763 21.7193 16.6705 21.9998C16.7591 22.2721 16.7761 22.5644 16.7198 22.846C16.6635 23.1276 16.5359 23.388 16.3505 23.5998C16.0541 23.9325 15.8266 24.326 15.6824 24.7556C15.5381 25.1852 15.4802 25.6416 15.5124 26.0958V30.3998C15.5124 30.8242 15.3519 31.2312 15.0661 31.5312C14.7803 31.8313 14.3927 31.9998 13.9886 31.9998C13.5845 31.9998 13.1969 31.8313 12.9111 31.5312C12.6253 31.2312 12.4648 30.8242 12.4648 30.3998V29.4878C10.9674 29.6687 9.45073 29.458 8.04967 28.8746C6.64861 28.2911 5.40664 27.3531 4.4343 26.1438C3.9345 25.5622 3.33485 25.0845 2.66669 24.7358C2.47258 24.6833 2.29023 24.5912 2.13004 24.4646C1.96986 24.3381 1.83497 24.1797 1.73309 23.9984C1.63121 23.8172 1.56433 23.6166 1.53627 23.4082C1.50821 23.1998 1.51952 22.9877 1.56954 22.7838C1.61957 22.58 1.70734 22.3886 1.82784 22.2204C1.94834 22.0522 2.09921 21.9105 2.27184 21.8036C2.44447 21.6966 2.63547 21.6264 2.83395 21.5969C3.03243 21.5674 3.23448 21.5793 3.42859 21.6318C4.60078 22.0802 5.64817 22.8281 6.47621 23.8078C8.00002 25.4078 9.52383 26.8158 12.4191 26.2398C12.3682 25.3808 12.4875 24.52 12.7695 23.7118C9.6305 22.8798 5.1505 20.5118 5.1505 12.5118C5.14648 10.6169 5.67668 8.763 6.6743 7.18384C6.8596 6.89233 6.93057 6.53696 6.8724 6.19184C6.56448 4.46476 6.73912 2.68102 7.37526 1.05584C7.46169 0.839148 7.59251 0.645096 7.75843 0.487475C7.92435 0.329854 8.12129 0.212532 8.33526 0.143844C8.85335 -0.0161558 10.7124 -0.336156 14.2324 2.06384C17.0819 1.34385 20.0534 1.34385 22.9029 2.06384C26.4229 -0.336156 28.2819 -0.0321558 28.7848 0.143844C28.9988 0.212532 29.1957 0.329854 29.3616 0.487475C29.5275 0.645096 29.6583 0.839148 29.7448 1.05584C30.3822 2.6863 30.5568 4.47553 30.2476 6.20784C30.2165 6.36393 30.2152 6.52497 30.244 6.68156C30.2728 6.83815 30.331 6.98715 30.4153 7.11984C31.4158 8.70354 31.9461 10.5634 31.9391 12.4638C31.9391 20.5758 27.4895 22.9278 24.32 23.6638C24.5992 24.5224 24.7132 25.4307 24.6553 26.3358V30.3998C24.656 30.8081 24.508 31.2011 24.2417 31.4986C23.9755 31.796 23.611 31.9753 23.2229 31.9998Z" />
</svg>