<svg xmlns="http://www.w3.org/2000/svg" viewBox="0 0 32 32" width="32" height="32" fill="none">
<path fill="currentColor" d="M28.8 32H26.128C25.2793 32 24.4654 31.6789 23.8653 31.1074C23.2651 30.5358 22.928 29.7607 22.928 28.9524V20.7695C22.9423 20.4486 22.8404 20.1327 22.6395 19.8748C22.4385 19.6168 22.1506 19.4324 21.824 19.3524C21.634 19.3248 21.4399 19.3364 21.255 19.3864C21.0701 19.4363 20.8986 19.5234 20.752 19.6419C20.6012 19.7638 20.4801 19.9156 20.3972 20.0867C20.3143 20.2577 20.2716 20.444 20.272 20.6324V28.9524C20.272 29.7607 19.9349 30.5358 19.3347 31.1074C18.7346 31.6789 17.9207 32 17.072 32H14.4C13.5513 32 12.7374 31.6789 12.1373 31.1074C11.5371 30.5358 11.2 29.7607 11.2 28.9524V20.6324C11.2 18.0055 12.2957 15.4862 14.2461 13.6287C16.1965 11.7712 18.8417 10.7276 21.6 10.7276C24.3583 10.7276 27.0035 11.7712 28.9539 13.6287C30.9043 15.4862 32 18.0055 32 20.6324V28.9524C32 29.7607 31.6629 30.5358 31.0627 31.1074C30.4626 31.6789 29.6487 32 28.8 32ZM21.6 16.2895C21.8504 16.2745 22.1016 16.2745 22.352 16.2895C23.4262 16.4863 24.3933 17.037 25.0838 17.8451C25.7743 18.6531 26.1439 19.6669 26.128 20.7086V28.9524H28.8V20.6324C28.8 18.8138 28.0414 17.0696 26.6912 15.7836C25.3409 14.4977 23.5096 13.7752 21.6 13.7752C19.6904 13.7752 17.8591 14.4977 16.5088 15.7836C15.1586 17.0696 14.4 18.8138 14.4 20.6324V28.9524H17.072V20.6324C17.072 19.4858 17.548 18.3858 18.3963 17.5722C19.2445 16.7587 20.3962 16.2976 21.6 16.2895ZM6.4 32H3.2C2.35131 32 1.53738 31.6789 0.93726 31.1074C0.337144 30.5358 2.20787e-06 29.7607 2.20787e-06 28.9524V13.7143C2.20787e-06 12.906 0.337144 12.1308 0.93726 11.5593C1.53738 10.9878 2.35131 10.6667 3.2 10.6667H6.4C7.24869 10.6667 8.06263 10.9878 8.66274 11.5593C9.26286 12.1308 9.6 12.906 9.6 13.7143V28.9524C9.6 29.7607 9.26286 30.5358 8.66274 31.1074C8.06263 31.6789 7.24869 32 6.4 32ZM3.2 13.7143V28.9524H6.4V13.7143H3.2ZM4.8 9.14286C3.85065 9.14286 2.92262 8.87475 2.13327 8.37243C1.34391 7.87012 0.728681 7.15616 0.36538 6.32084C0.00207977 5.48552 -0.0929762 4.56636 0.0922328 3.67959C0.277442 2.79282 0.734598 1.97827 1.40589 1.33894C2.07718 0.699617 2.93246 0.26423 3.86357 0.0878408C4.79468 -0.0885488 5.7598 0.00198074 6.63688 0.347981C7.51397 0.693982 8.26363 1.27991 8.79106 2.03168C9.31849 2.78345 9.6 3.66729 9.6 4.57143C9.6 5.78385 9.09429 6.94661 8.19411 7.80392C7.29394 8.66123 6.07304 9.14286 4.8 9.14286ZM4.8 3.04762C4.48355 3.04762 4.17421 3.13699 3.91109 3.30443C3.64797 3.47187 3.44289 3.70985 3.32179 3.98829C3.20069 4.26673 3.16901 4.57312 3.23075 4.86871C3.29248 5.1643 3.44487 5.43582 3.66863 5.64893C3.8924 5.86203 4.17749 6.00716 4.48786 6.06596C4.79823 6.12476 5.11993 6.09458 5.4123 5.97925C5.70466 5.86391 5.95454 5.6686 6.13035 5.41801C6.30616 5.16742 6.4 4.87281 6.4 4.57143C6.4 4.16729 6.23143 3.7797 5.93137 3.49393C5.63131 3.20816 5.22435 3.04762 4.8 3.04762Z" />
</svg>