<svg xmlns="http://www.w3.org/2000/svg" viewBox="0 0 32 29" width="32" height="29" fill="none">
<path fill="currentColor" d="M10.416 27.3886H10.288C7.70935 27.3658 5.16802 26.766 2.84798 25.6325C2.42121 25.4306 2.06983 25.0965 1.84526 24.679C1.62069 24.2616 1.53474 23.7827 1.59998 23.3125C1.67093 22.8391 1.88859 22.4003 2.22191 22.0589C2.55522 21.7175 2.98713 21.4909 3.45597 21.4113C4.89375 21.2182 6.27691 20.7302 7.51998 19.9775C5.36183 18.2784 3.70038 16.0231 2.71169 13.4505C1.72299 10.878 1.4439 8.08398 1.90398 5.36468C1.96636 4.93395 2.15032 4.53034 2.43397 4.20188C2.71763 3.87341 3.08903 3.63392 3.50398 3.5119C3.90768 3.38424 4.33973 3.37878 4.74648 3.49621C5.15324 3.61365 5.51678 3.84879 5.79198 4.17246C6.72638 5.40622 7.90061 6.43536 9.24302 7.1971C10.5854 7.95884 12.0679 8.4372 13.6 8.60301C13.6732 6.70489 14.4832 4.9115 15.856 3.60857C16.5414 2.94765 17.3506 2.4307 18.2365 2.08786C19.1223 1.74501 20.0671 1.58311 21.0157 1.6116C21.9643 1.64009 22.8977 1.8584 23.7617 2.2538C24.6257 2.64921 25.4029 3.2138 26.048 3.91468C26.216 4.0643 26.4249 4.15965 26.6474 4.18838C26.8699 4.2171 27.0959 4.17788 27.296 4.07579C27.6775 3.89462 28.1023 3.82642 28.5208 3.87915C28.9393 3.93188 29.3343 4.10336 29.6597 4.3736C29.9851 4.64383 30.2275 5.00167 30.3586 5.40537C30.4896 5.80906 30.504 6.24197 30.4 6.65357C30.0309 8.18431 29.3317 9.61446 28.352 10.8425C28.136 15.4257 26.1294 19.737 22.7695 22.8366C19.4096 25.9361 14.969 27.5723 10.416 27.3886ZM10.416 24.1663H10.544C12.4042 24.2308 14.2587 23.9227 15.9999 23.2601C17.741 22.5974 19.3342 21.5933 20.6871 20.3059C22.0399 19.0186 23.1256 17.4737 23.881 15.7607C24.6365 14.0477 25.0467 12.2007 25.088 10.3269C25.1144 9.81336 25.3247 9.32686 25.68 8.95746C26.0702 8.46002 26.403 7.91951 26.672 7.34635C26.0956 7.34745 25.5254 7.22604 24.9988 6.99006C24.4722 6.75408 24.001 6.40884 23.616 5.9769C23.2457 5.60724 22.806 5.31567 22.3224 5.11925C21.8389 4.92283 21.3213 4.82552 20.8 4.83301C20.2734 4.8193 19.7494 4.91045 19.2579 5.10122C18.7664 5.29199 18.3172 5.57863 17.936 5.94468C17.4217 6.43607 17.0446 7.05484 16.8424 7.73908C16.6403 8.42332 16.6201 9.14902 16.784 9.84357L17.2 11.6802L15.328 11.8091C13.4097 11.9666 11.4804 11.7024 9.6736 11.0348C7.8668 10.3671 6.22571 9.31199 4.86398 7.94246C4.80557 10.0633 5.33246 12.1589 6.38605 13.9963C7.43964 15.8337 8.97865 17.3409 10.832 18.3502L12.352 19.2202L11.344 20.6702C10.2539 22.1098 8.76027 23.1873 7.05597 23.7636C8.14928 24.0395 9.27289 24.1748 10.4 24.1663H10.416Z" />
</svg>