<svg xmlns="http://www.w3.org/2000/svg" viewBox="0 0 32 32" width="32" height="32" fill="none">
<path fill="#31274A" fill-rule="evenodd" clip-rule="evenodd" d="M20.4315 2.70628C20.6761 2.99208 20.8007 3.37786 21.0502 4.14905L26.5 21C24.4529 20.0002 22.2559 19.3 19.9846 18.9237L16.4362 7.63721C16.4079 7.54718 16.3494 7.46816 16.2695 7.41201C16.1894 7.35586 16.0924 7.32558 15.9928 7.32572C15.8928 7.32585 15.7958 7.35639 15.7162 7.41274C15.6364 7.46911 15.5782 7.54827 15.5501 7.63839L12.0446 18.918C9.76315 19.2926 7.55597 19.9938 5.5 20.9975L10.9764 4.14526C11.2267 3.37513 11.3517 2.99019 11.5964 2.70498C11.8123 2.45306 12.0932 2.25741 12.4123 2.13669C12.7737 2 13.2013 2 14.057 2H17.9685C18.8252 2 19.2534 2 19.6152 2.13704C19.9345 2.258 20.2155 2.454 20.4315 2.70628Z"/>
<path fill="#FF5D01" fill-rule="evenodd" clip-rule="evenodd" d="M21.3057 22.1899C20.3567 23.0014 18.4627 23.5547 16.2812 23.5547C13.6035 23.5547 11.3592 22.7211 10.7637 21.6001C10.5508 22.2427 10.5031 22.9779 10.5031 23.4478C10.5031 23.4478 10.3628 25.7544 11.9671 27.3586C11.9671 26.5255 12.6425 25.8503 13.4756 25.8503C14.9034 25.8503 14.9018 27.096 14.9004 28.1066V28.1968C14.9004 29.7309 15.8379 31.0459 17.1713 31.6001C16.966 31.1776 16.8597 30.7141 16.8603 30.2444C16.8603 28.7814 17.7194 28.2366 18.7177 27.6036C19.512 27.0999 20.3944 26.5402 21.0026 25.4173C21.3302 24.8126 21.5011 24.1356 21.5 23.4478C21.5 23.0091 21.4319 22.5866 21.3057 22.1899Z"/>
<path fill="url(#astro_flames)" fill-rule="evenodd" clip-rule="evenodd" d="M21.3057 22.1899C20.3567 23.0014 18.4627 23.5547 16.2812 23.5547C13.6035 23.5547 11.3592 22.7211 10.7637 21.6001C10.5508 22.2427 10.5031 22.9779 10.5031 23.4478C10.5031 23.4478 10.3628 25.7544 11.9671 27.3586C11.9671 26.5255 12.6425 25.8503 13.4756 25.8503C14.9034 25.8503 14.9018 27.096 14.9004 28.1066V28.1968C14.9004 29.7309 15.8379 31.0459 17.1713 31.6001C16.966 31.1776 16.8597 30.7141 16.8603 30.2444C16.8603 28.7814 17.7194 28.2366 18.7177 27.6036C19.512 27.0999 20.3944 26.5402 21.0026 25.4173C21.3302 24.8126 21.5011 24.1356 21.5 23.4478C21.5 23.0091 21.4319 22.5866 21.3057 22.1899Z"/>
<defs>
<linearGradient id="astro_flames" x1="270.515" y1="180.096" x2="228.802" y2="276.152" gradientUnits="userSpaceOnUse">
<stop stop-color="#FF1639"/>
<stop offset="1" stop-color="#FF1639" stop-opacity="0"/>
</linearGradient>
</defs>
</svg>
