<svg xmlns="http://www.w3.org/2000/svg" viewBox="0 0 32 36" width="32" height="36" fill="none">
<path fill="#FAE501" d="M10.9167 25.0102C9.00343 23.2158 7.87801 20.7484 7.87801 17.9446C7.87801 15.1407 9.00343 12.6733 10.8041 10.8789C12.3797 9.30874 12.3797 6.84136 10.8041 5.27121C9.22852 3.70106 6.75258 3.70106 5.17697 5.27121C2.02577 8.52366 0 13.0098 0 17.9446C0 22.8793 2.02577 27.3655 5.28952 30.6179C6.86512 32.1881 9.34106 32.1881 10.9167 30.6179C12.3797 29.0478 12.3797 26.5804 10.9167 25.0102Z"/>
<path fill="#4FB5E1" d="M10.9166 10.8789C12.7173 8.97228 15.1933 7.85075 18.0068 7.85075C20.8204 7.85075 23.2964 8.97228 25.097 10.7667C26.6726 12.3369 29.1486 12.3369 30.7242 10.7667C32.2998 9.19659 32.2998 6.72921 30.7242 5.15906C27.4604 2.01876 22.9587 0 18.0068 0C13.055 0 8.55323 2.01876 5.28949 5.27122C3.71389 6.84136 3.71389 9.30874 5.28949 10.8789C6.86509 12.3369 9.34103 12.3369 10.9166 10.8789Z"/>
<path fill="#F05751" d="M25.097 25.0102C23.2964 26.9168 20.8204 28.0384 18.0068 28.0384C15.1933 28.0384 12.7173 26.9168 10.9166 25.1224C9.34103 23.5522 6.86509 23.5522 5.28949 25.1224C3.71389 26.6925 3.71389 29.1599 5.28949 30.7301C8.55323 33.8704 13.055 35.8891 18.0068 35.8891C22.9587 35.8891 27.4604 33.8704 30.7242 30.6179C32.2998 29.0478 32.2998 26.5804 30.7242 25.0102C29.1486 23.5522 26.6726 23.5522 25.097 25.0102Z"/>
<path fill="#0681B6" d="M8.10307 12.0004C10.2785 12.0004 12.0421 10.243 12.0421 8.07505C12.0421 5.90712 10.2785 4.14967 8.10307 4.14967C5.92761 4.14967 4.16406 5.90712 4.16406 8.07505C4.16406 10.243 5.92761 12.0004 8.10307 12.0004Z"/>
<path fill="#CD4739" d="M8.10307 31.7394C10.2785 31.7394 12.0421 29.982 12.0421 27.8141C12.0421 25.6462 10.2785 23.8887 8.10307 23.8887C5.92761 23.8887 4.16406 25.6462 4.16406 27.8141C4.16406 29.982 5.92761 31.7394 8.10307 31.7394Z"/>
</svg>
