<svg xmlns="http://www.w3.org/2000/svg" viewBox="0 0 32 32" width="32" height="32" fill="none">
<path fill="#663399" d="M0 0H26.88C28.2379 0 29.5402 0.539427 30.5004 1.49961C31.4606 2.4598 32 3.76209 32 5.12V26.88C32 28.2379 31.4606 29.5402 30.5004 30.5004C29.5402 31.4606 28.2379 32 26.88 32H5.12C3.76209 32 2.4598 31.4606 1.49961 30.5004C0.539427 29.5402 0 28.2379 0 26.88L0 0Z"/>
<path fill="white" d="M11.4592 29.44C9.40385 29.4381 8.13569 28.2806 8.16001 26.1507V20.7622C8.16001 19.6826 8.47617 18.8614 9.10849 18.2995C10.2442 17.2054 12.8791 17.1389 13.9914 18.3162C14.6768 18.9206 14.9354 20.1555 14.8739 21.3078H12.5149C12.5328 20.855 12.5088 20.1693 12.2426 19.911C11.8967 19.4429 10.9831 19.4979 10.7415 19.9853C10.593 20.2496 10.5187 20.641 10.5187 21.1587V25.8365C10.5187 26.8173 10.8595 27.3133 11.5415 27.3242C11.8602 27.3242 12.1024 27.2083 12.2672 26.977C12.4973 26.7024 12.5331 26.0944 12.5146 25.6547H14.8736C15.0349 27.897 13.7114 29.4678 11.4589 29.44H11.4592ZM18.9485 29.44C16.6711 29.4714 15.6522 27.8509 15.7152 25.6547H17.9421C17.8803 26.6122 18.2093 27.4842 18.9978 27.4234C19.3495 27.4234 19.5971 27.3133 19.7402 27.0928C20.0122 26.6899 20.0631 25.5264 19.6743 25.0762C19.4026 24.6426 18.4253 24.2598 17.9091 24.0019C17.1722 23.6493 16.6416 23.2307 16.3171 22.7456C15.5853 21.6691 15.6531 19.3062 16.68 18.3488C17.6778 17.1674 20.2835 17.113 21.2823 18.3242C21.8983 18.9485 22.1674 20.177 22.1152 21.3075H19.9706C19.9888 20.8429 19.945 20.0931 19.7645 19.8198C19.6381 19.5885 19.3987 19.4726 19.0471 19.4726C18.4202 19.4726 18.1069 19.8474 18.1069 20.5965C18.1136 21.392 18.4237 21.7184 19.1463 22.0509C20.0819 22.4144 21.2717 23.0352 21.7031 23.7866C22.9895 26.0758 22.1069 29.5728 18.9482 29.4394L18.9485 29.44ZM26.1408 29.44C23.8634 29.4714 22.8445 27.8509 22.9075 25.6547H25.1344C25.0727 26.6122 25.4016 27.4842 26.1901 27.4234C26.5418 27.4234 26.7895 27.3133 26.9325 27.0928C27.2045 26.6899 27.2554 25.5264 26.8666 25.0762C26.5949 24.6426 25.6176 24.2598 25.1015 24.0019C24.3645 23.6493 23.8339 23.2307 23.5095 22.7456C22.7776 21.6691 22.8455 19.3062 23.8723 18.3488C24.8701 17.1674 27.4759 17.113 28.4746 18.3242C29.0906 18.9485 29.3597 20.177 29.3075 21.3075H27.1629C27.1811 20.8429 27.1373 20.0931 26.9568 19.8198C26.8304 19.5885 26.5911 19.4726 26.2394 19.4726C25.6125 19.4726 25.2992 19.8474 25.2992 20.5965C25.3059 21.392 25.616 21.7184 26.3386 22.0509C27.2743 22.4144 28.464 23.0352 28.8954 23.7866C30.1818 26.0758 29.2992 29.5728 26.1405 29.4394L26.1408 29.44Z"/>
</svg>
