<svg xmlns="http://www.w3.org/2000/svg" viewBox="0 0 32 32" width="32" height="32" fill="none">
<path fill="#2D4552" d="M10.8178 17.3576C9.64927 17.6847 8.88264 18.2582 8.37763 18.8312C8.86133 18.4137 9.50925 18.0305 10.3832 17.7862C11.2772 17.5363 12.0398 17.5381 12.67 17.658V17.172C12.1324 17.1235 11.5161 17.1622 10.8178 17.3576ZM8.32421 13.2721L3.98448 14.3997C3.98448 14.3997 4.06357 14.5099 4.21002 14.6569L7.88957 13.7007C7.88957 13.7007 7.83743 14.3633 7.38463 14.9561C8.24115 14.317 8.32421 13.2721 8.32421 13.2721ZM11.9569 23.3312C5.84969 24.9536 2.61859 17.9731 1.64035 14.35C1.18838 12.6776 0.991087 11.411 0.9385 10.5936C0.932851 10.5087 0.935462 10.4372 0.941547 10.3716C0.624739 10.3905 0.473064 10.5529 0.503923 11.0223C0.55651 11.8392 0.753808 13.1057 1.20577 14.7787C2.18358 18.4013 5.41512 25.3817 11.5223 23.7594C12.8516 23.4062 13.8503 22.7629 14.6 21.9416C13.909 22.5572 13.0441 23.0419 11.9569 23.3312ZM13.1045 9V9.42868H15.5C15.4509 9.2769 15.4013 9.14015 15.3522 9H13.1045Z"/>
<path fill="#2D4552" d="M15.5278 12.6197C16.6169 12.9313 17.1929 13.7005 17.4974 14.3813L18.7117 14.7287C18.7117 14.7287 18.5461 12.3463 16.4069 11.7341C14.4057 11.1613 13.1742 12.8543 13.0244 13.0734C13.6065 12.6556 14.4566 12.3135 15.5278 12.6197ZM25.1943 14.3923C23.1913 13.8169 21.9602 15.5134 21.8126 15.7294C22.3952 15.312 23.2449 14.9699 24.3156 15.2775C25.403 15.5896 25.9785 16.3579 26.2839 17.0391L27.5 17.3878C27.5 17.3878 27.3317 15.0049 25.1943 14.3923ZM23.9879 20.674L13.886 17.8291C13.886 17.8291 13.9953 18.3876 14.4149 19.1108L22.9203 21.5062C23.6205 21.098 23.9879 20.674 23.9879 20.674ZM16.9842 26.7978C8.98545 24.6374 9.95246 14.3707 11.2468 9.50562C11.7797 7.50069 12.3275 6.01049 12.7819 5.01156C12.5108 4.95534 12.2863 5.09919 12.0644 5.55373C11.582 6.53938 10.9651 8.14422 10.3681 10.3908C9.07419 15.2558 8.10718 25.5222 16.1055 27.6825C19.8756 28.7 22.8126 27.1536 25.0019 24.7251C22.9238 26.6212 20.2705 27.6843 16.9842 26.7978Z"/>
<path fill="#E2574C" d="M12.6699 21.3024V19.1966L7.01759 20.8557C7.01759 20.8557 7.43525 18.3437 10.3831 17.4781C11.2771 17.2158 12.0398 17.2176 12.6699 17.3436V8.70609H15.5C15.1919 7.72043 14.8938 6.96156 14.6434 6.43428C14.2292 5.56155 13.8046 6.14009 12.8407 6.97461C12.1619 7.56169 10.4461 8.81414 7.8642 9.53432C5.28226 10.255 3.19489 10.0639 2.32397 9.90775C1.08928 9.68724 0.443471 9.40656 0.503885 10.3787C0.556465 11.2361 0.753778 12.5656 1.20575 14.3213C2.18359 18.1236 5.41524 25.4502 11.5226 23.7475C13.118 23.3025 14.244 22.423 15.0245 21.302H12.6699V21.3024ZM3.54909 14.3735L7.88941 13.19C7.88941 13.19 7.7629 14.9184 6.1358 15.3624C4.50824 15.8059 3.54909 14.3735 3.54909 14.3735Z"/>
<path fill="#2EAD33" d="M29.1199 8.96052C27.9842 9.16191 25.2596 9.4128 21.8923 8.49984C18.5242 7.58744 16.2895 5.99168 15.4041 5.24161C14.149 4.17824 13.5969 3.43923 13.0535 4.55704C12.5732 5.54297 11.9589 7.14754 11.3644 9.39377C10.076 14.2579 9.11313 24.5226 17.0774 26.6826C25.04 28.8407 29.2791 19.4637 30.5675 14.5991C31.1621 12.3533 31.4228 10.6527 31.4946 9.5562C31.5764 8.31406 30.7329 8.67464 29.1199 8.96052ZM13.1183 12.9848C13.1183 12.9848 14.3734 11.0103 16.5021 11.6223C18.6322 12.2343 18.7972 14.6164 18.7972 14.6164L13.1183 12.9848ZM18.3146 21.8454C14.5703 20.7359 13.9928 17.7157 13.9928 17.7157L24.0513 20.5603C24.0513 20.5598 22.021 22.941 18.3146 21.8454ZM21.8709 15.6386C21.8709 15.6386 23.1243 13.6654 25.2526 14.2791C27.3809 14.8921 27.5485 17.2742 27.5485 17.2742L21.8709 15.6386Z"/>
<path fill="#D65348" d="M11.4209 19.9284L7.48202 20.9683C7.48202 20.9683 7.90989 18.6976 10.8115 17.7977L8.58114 10L8.38841 10.0546C5.62269 10.7494 3.38673 10.5651 2.45381 10.4146C1.13124 10.2021 0.439455 9.9314 0.504161 10.8687C0.560493 11.6953 0.771843 12.9768 1.25599 14.6695C2.30345 18.335 5.76514 25.398 12.3073 23.7565L12.5 23.7002L11.4209 19.9284ZM3.76661 14.7198L8.4159 13.5788C8.4159 13.5788 8.28039 15.245 6.53745 15.673C4.79405 16.1006 3.76661 14.7198 3.76661 14.7198Z"/>
<path fill="#1D8D22" d="M18.8852 22.1076L18.7073 22.0655C14.7746 20.9424 14.1681 17.8849 14.1681 17.8849L19.6158 19.3696L22.5 8.56434L22.4651 8.55536C18.9275 7.63171 16.5804 6.01626 15.6504 5.25693C14.3321 4.18044 13.7522 3.43232 13.1816 4.56391C12.6775 5.56201 12.0323 7.18638 11.4079 9.46033C10.0547 14.3845 9.04335 24.7758 17.4084 26.9623L17.5798 27L18.8852 22.1076ZM13.25 13.0957C13.25 13.0957 14.5683 11.0968 16.8041 11.7163C19.0414 12.3359 19.2146 14.7474 19.2146 14.7474L13.25 13.0957Z"/>
<path fill="#C04B41" d="M10.8663 19.9096L9.78086 20.1982C10.0373 21.5524 10.4893 22.8519 11.1987 24C11.3222 23.9745 11.4447 23.9525 11.5705 23.9202C11.9001 23.8369 12.2057 23.7338 12.5 23.6213C11.7073 22.5194 11.183 21.2503 10.8663 19.9096ZM10.4425 10.3719C9.88467 12.3221 9.38567 15.1291 9.52302 17.9446C9.76888 17.8446 10.0286 17.7515 10.3171 17.6748L10.518 17.6327C10.2731 14.6254 10.8026 11.5607 11.3992 9.47564C11.5504 8.94816 11.702 8.45753 11.8532 8C11.6097 8.14512 11.3476 8.29389 11.049 8.44715C10.8477 9.02933 10.6443 9.66564 10.4425 10.3719Z"/>
</svg>
