<svg xmlns="http://www.w3.org/2000/svg" viewBox="0 0 32 29" width="32" height="29" fill="none">
<path fill="currentColor" d="M16 17.5688C17.6832 17.5688 19.0476 16.1948 19.0476 14.5C19.0476 12.8052 17.6832 11.4312 16 11.4312C14.3169 11.4312 12.9524 12.8052 12.9524 14.5C12.9524 16.1948 14.3169 17.5688 16 17.5688Z"/>
<path stroke="currentColor" d="M16 21.4048C24.4158 21.4048 31.2381 18.3134 31.2381 14.5C31.2381 10.6866 24.4158 7.59525 16 7.59525C7.58423 7.59525 0.761902 10.6866 0.761902 14.5C0.761902 18.3134 7.58423 21.4048 16 21.4048Z"/>
<path stroke="currentColor" d="M10.0615 17.9524C14.2694 25.2913 20.3393 29.6949 23.619 27.7882C26.8988 25.8815 26.1463 18.3865 21.9384 11.0476C17.7306 3.70874 11.6607 -0.694917 8.38094 1.21178C5.10122 3.11848 5.85364 10.6135 10.0615 17.9524Z"/>
<path stroke="currentColor" d="M10.0615 11.0476C5.85364 18.3865 5.10122 25.8815 8.38094 27.7882C11.6607 29.6949 17.7306 25.2913 21.9384 17.9524C26.1463 10.6135 26.8988 3.11849 23.619 1.21179C20.3393 -0.694909 14.2694 3.70875 10.0615 11.0476Z"/>
</svg>
