<svg xmlns="http://www.w3.org/2000/svg" viewBox="0 0 32 32" width="32" height="32" fill="none">
<path fill="#FF4785" d="M4.92736 29.0654L4.00108 3.47738C3.97048 2.6323 4.5955 1.91612 5.40961 1.86337L26.4028 0.503088C27.2315 0.449394 27.9453 1.10231 27.997 1.96143C27.999 1.9938 28 2.02622 28 2.05865V29.9415C28 30.8022 27.3269 31.5 26.4966 31.5C26.4741 31.5 26.4517 31.4995 26.4291 31.4984L6.36222 30.5641C5.5807 30.5277 4.9567 29.8759 4.92736 29.0654Z"/>
<path fill="white" fill-rule="evenodd" clip-rule="evenodd" d="M24.8686 0.5L21.7223 0.699673L21.5688 4.4467C21.5665 4.5043 21.5839 4.56094 21.6182 4.60688C21.6998 4.71599 21.853 4.73735 21.9605 4.65458L23.3939 3.55048L24.6045 4.51891C24.65 4.5552 24.7065 4.57398 24.7643 4.57195C24.8991 4.56717 25.0046 4.45234 24.9998 4.31546L24.8686 0.5ZM22.4198 13.0476C21.8437 13.5019 17.5534 13.8119 17.5534 13.1652C17.644 10.6973 16.5559 10.5891 15.9514 10.5891C15.3771 10.5891 14.4099 10.7653 14.4099 12.0874C14.4099 13.4347 15.8234 14.1953 17.4825 15.088C19.8394 16.3562 22.6917 17.8912 22.6917 21.7533C22.6917 25.4552 19.7296 27.5 15.9514 27.5C12.0523 27.5 8.64491 25.8982 9.02973 20.3448C9.18087 19.6928 14.1379 19.8477 14.1379 20.3448C14.0774 22.6365 14.5913 23.3105 15.891 23.3105C16.8884 23.3105 17.3418 22.7522 17.3418 21.812C17.3418 20.3893 15.8691 19.5496 14.1749 18.5838C11.8809 17.276 9.18087 15.7368 9.18087 12.2049C9.18087 8.67938 11.5687 6.32901 15.8305 6.32901C20.0924 6.32901 22.4198 8.64338 22.4198 13.0476Z"/>
</svg>
