<svg xmlns="http://www.w3.org/2000/svg" viewBox="0 0 32 32" width="32" height="32" fill="none">
<path fill="#4945FF" d="M0 11.0933C0 5.86388 0 3.24916 1.62457 1.62457C3.24916 0 5.86388 0 11.0933 0H20.9067C26.1362 0 28.7508 0 30.3754 1.62457C32 3.24916 32 5.86388 32 11.0933V20.9067C32 26.1362 32 28.7508 30.3754 30.3754C28.7508 32 26.1362 32 20.9067 32H11.0933C5.86388 32 3.24916 32 1.62457 30.3754C0 28.7508 0 26.1362 0 20.9067V11.0933Z"/>
<path fill="white" d="M22.08 9.70665H11.3066V15.2H16.8V20.6933H22.2933V9.91999C22.2933 9.80217 22.1977 9.70665 22.08 9.70665Z"/>
<path fill="white" d="M16.7999 15.2H16.5865V15.4133H16.7999V15.2Z"/>
<path fill="#9593FF" d="M11.3066 15.2H16.5866C16.7044 15.2 16.8 15.2955 16.8 15.4133V20.6933H11.5199C11.4021 20.6933 11.3066 20.5979 11.3066 20.48V15.2Z"/>
<path fill="#9593FF" d="M16.8 20.6933H22.2933L16.982 26.0045C16.9149 26.0717 16.8 26.0242 16.8 25.9292V20.6933Z"/>
<path fill="#9593FF" d="M11.3066 15.2H6.07074C5.97572 15.2 5.92813 15.0851 5.99532 15.0179L11.3066 9.70665V15.2Z"/>
</svg>
