<svg xmlns="http://www.w3.org/2000/svg" viewBox="0 0 32 32" width="32" height="32" fill="none">
<path fill="currentColor" d="M13.8053 28.1667C12.6325 28.4714 11.3944 28.4089 10.2583 27.9876C9.1221 27.5662 8.14259 26.8064 7.45201 25.8107C7.02789 25.2173 6.72652 24.5452 6.56556 23.8339C6.4046 23.1225 6.3873 22.3861 6.51468 21.668C6.55811 21.4322 6.6178 21.1996 6.69335 20.972L6.83335 20.544L7.21601 20.824C8.09765 21.4716 9.08336 21.964 10.1307 22.28L10.408 22.364L10.3813 22.6413C10.348 23.0342 10.4548 23.4262 10.6827 23.748C10.8905 24.0481 11.1854 24.2772 11.5276 24.4043C11.8698 24.5314 12.2427 24.5504 12.596 24.4587C12.7578 24.4157 12.912 24.3483 13.0533 24.2587L20.5067 19.5093C20.6887 19.3944 20.8448 19.2428 20.9651 19.0642C21.0854 18.8856 21.1672 18.6839 21.2053 18.472C21.2437 18.2555 21.2386 18.0335 21.1903 17.819C21.142 17.6045 21.0515 17.4018 20.924 17.2227C20.7161 16.9227 20.4212 16.6938 20.079 16.5667C19.7369 16.4396 19.364 16.4205 19.0107 16.512C18.8489 16.5549 18.6947 16.6224 18.5533 16.712L15.7093 18.5253C15.2418 18.823 14.7314 19.0473 14.196 19.1907C13.0233 19.4955 11.7853 19.4332 10.6492 19.0121C9.51302 18.5911 8.53343 17.8315 7.84268 16.836C7.41855 16.2424 7.11727 15.5701 6.95654 14.8585C6.79581 14.1468 6.77885 13.4103 6.90668 12.692C7.03305 11.9882 7.3049 11.3184 7.70484 10.7257C8.10478 10.1329 8.62402 9.63004 9.22935 9.24934L16.6813 4.49867C17.1489 4.20095 17.6592 3.97657 18.1947 3.83334C19.3675 3.52861 20.6056 3.59113 21.7418 4.01245C22.8779 4.43377 23.8574 5.1936 24.548 6.18934C24.9721 6.7827 25.2735 7.45477 25.4345 8.16614C25.5954 8.87751 25.6127 9.61386 25.4853 10.332C25.4417 10.5678 25.382 10.8004 25.3067 11.028L25.1667 11.456L24.7853 11.176C23.9035 10.5276 22.9173 10.0348 21.8693 9.71867L21.592 9.63467L21.6187 9.35867C21.6521 8.96536 21.5453 8.57291 21.3173 8.25067C21.1094 7.95082 20.8144 7.72201 20.4722 7.59516C20.13 7.46831 19.7572 7.44953 19.404 7.54134C19.2423 7.5843 19.088 7.65175 18.9467 7.74134L11.4933 12.4907C11.3112 12.6055 11.155 12.7571 11.0347 12.9357C10.9144 13.1143 10.8327 13.316 10.7947 13.528C10.7561 13.7445 10.7612 13.9665 10.8095 14.181C10.8578 14.3955 10.9484 14.5983 11.076 14.7773C11.2839 15.0773 11.5789 15.3062 11.921 15.4333C12.2631 15.5604 12.636 15.5795 12.9893 15.488C13.1516 15.4447 13.3063 15.3768 13.448 15.2867L16.2907 13.4733C16.7582 13.176 17.2686 12.9521 17.804 12.8093C18.9767 12.5045 20.2147 12.5668 21.3509 12.9879C22.487 13.4089 23.4666 14.1685 24.1573 15.164C24.5815 15.7576 24.8828 16.4299 25.0435 17.1416C25.2042 17.8532 25.2212 18.5897 25.0933 19.308C24.967 20.012 24.6952 20.6819 24.2952 21.275C23.8953 21.868 23.376 22.371 22.7707 22.752L15.3187 27.5013C14.8512 27.7991 14.3408 28.0234 13.8053 28.1667ZM27.616 4.23334C24.6453 -0.0199922 18.776 -1.27999 14.5333 1.42401L7.08001 6.17334C6.07348 6.80681 5.21018 7.64331 4.5453 8.62938C3.88042 9.61545 3.42859 10.7294 3.21868 11.9C2.86305 13.8722 3.17555 15.9068 4.10668 17.6813C3.46846 18.6488 3.03303 19.7355 2.82668 20.876C2.61462 22.0702 2.64313 23.2947 2.91055 24.4777C3.17798 25.6608 3.67892 26.7785 4.38401 27.7653C7.35601 32.0187 13.224 33.2787 17.4667 30.576L24.92 25.8267C25.9267 25.1933 26.79 24.3569 27.4549 23.3708C28.1198 22.3847 28.5716 21.2707 28.7813 20.1C29.1371 18.1279 28.8251 16.0935 27.8947 14.3187C28.532 13.3511 28.9665 12.2643 29.172 11.124C29.3846 9.9297 29.3565 8.70496 29.0893 7.52168C28.8221 6.33839 28.3212 5.22041 27.616 4.23334Z"/>
</svg>
