<svg xmlns="http://www.w3.org/2000/svg" viewBox="0 0 32 19" width="32" height="19" fill="none">
<path fill="url(#tailwind_color)" d="M16 0C11.7333 0 9.06667 2.10563 8 6.31688C9.6 4.21126 11.4667 3.42164 13.6 3.94805C14.8172 4.2484 15.6872 5.11995 16.6501 6.08474C18.2188 7.65635 20.0344 9.47532 24 9.47532C28.2667 9.47532 30.9333 7.3697 32 3.15844C30.4 5.26407 28.5333 6.05368 26.4 5.52727C25.1828 5.22693 24.3128 4.35537 23.3499 3.39059C21.7812 1.81897 19.9656 0 16 0ZM8 9.47532C3.73333 9.47532 1.06667 11.581 0 15.7922C1.6 13.6866 3.46667 12.897 5.6 13.4234C6.81719 13.7237 7.68717 14.5953 8.65013 15.5601C10.2188 17.1317 12.0344 18.9506 16 18.9506C20.2667 18.9506 22.9333 16.845 24 12.6338C22.4 14.7394 20.5333 15.529 18.4 15.0026C17.1828 14.7023 16.3128 13.8307 15.3499 12.8659C13.7812 11.2943 11.9656 9.47532 8 9.47532Z"/>
<defs>
<linearGradient id="tailwind_color" x1="-88.8889" y1="606.421" x2="2656.69" y2="2210.29" gradientUnits="userSpaceOnUse">
<stop stop-color="#2298BD"/>
<stop offset="1" stop-color="#0ED7B5"/>
</linearGradient>
</defs>
</svg>
