<svg xmlns="http://www.w3.org/2000/svg" viewBox="0 0 32 29" width="32" height="29" fill="none">
<path fill="#FCC72B" d="M24.0144 8.7754L16.3643 19.7419C16.2832 19.8581 16.1659 19.9452 16.0302 19.9899C15.8945 20.0346 15.7478 20.0342 15.6124 19.9893C15.477 19.9442 15.3602 19.8567 15.2798 19.7402C15.1994 19.6235 15.1598 19.4841 15.1669 19.3433L15.4731 13.2887L10.5303 12.2494C10.4247 12.2272 10.3263 12.1796 10.2438 12.1109C10.1613 12.0422 10.0973 11.9544 10.0574 11.8553C10.0175 11.7563 10.003 11.6491 10.0152 11.5431C10.0273 11.4371 10.0657 11.3357 10.127 11.2478L17.7772 0.281368C17.8583 0.165031 17.9756 0.0779509 18.1113 0.0333091C18.247 -0.0113327 18.3937 -0.0111018 18.5292 0.0340017C18.6646 0.0790842 18.7813 0.166563 18.8617 0.283173C18.9421 0.399762 18.9817 0.539103 18.9745 0.680059L18.6684 6.73474L23.6111 7.77395C23.7167 7.79613 23.8152 7.84371 23.8977 7.91243C23.9803 7.98116 24.0442 8.06894 24.084 8.16798C24.124 8.26702 24.1384 8.37427 24.1263 8.48022C24.1143 8.58619 24.0757 8.68752 24.0144 8.7754Z"/>
<path fill="#729B1B" d="M16.003 28.9426C15.7996 28.9428 15.5981 28.9034 15.4101 28.8262C15.2221 28.7489 15.0513 28.6356 14.9077 28.4929L7.67919 21.3267C7.39002 21.0385 7.22793 20.6483 7.22846 20.2418C7.22901 19.8352 7.39214 19.4453 7.68211 19.158C7.97206 18.8704 8.36519 18.7086 8.77526 18.708C9.18535 18.7076 9.57892 18.8681 9.86968 19.1548L16.003 25.2351L29.3646 11.9883C29.6559 11.7042 30.0486 11.5457 30.4572 11.5473C30.8659 11.549 31.2574 11.7107 31.5461 11.9971C31.8351 12.2836 31.9983 12.6717 32 13.0768C32.0014 13.4819 31.8416 13.8713 31.555 14.1601L17.0981 28.4929C16.9545 28.6358 16.7838 28.7489 16.5958 28.8262C16.4079 28.9034 16.2065 28.9428 16.003 28.9426Z"/>
<path fill="#729B1B" fill-opacity="0.5" d="M15.9969 28.9426C16.2003 28.9428 16.4018 28.9034 16.5898 28.8262C16.7778 28.7489 16.9485 28.6356 17.0922 28.4929L24.3207 21.3267C24.6099 21.0385 24.772 20.6483 24.7714 20.2418C24.771 19.8352 24.6078 19.4453 24.3177 19.158C24.0277 18.8704 23.6346 18.7086 23.2246 18.708C22.8145 18.7076 22.421 18.8681 22.1301 19.1548L15.9969 25.2351L2.63529 11.9883C2.344 11.7042 1.95128 11.5457 1.54267 11.5473C1.13404 11.549 0.742626 11.7107 0.453692 11.9971C0.164751 12.2836 0.00168941 12.6717 1.26621e-05 13.0768C-0.00163837 13.4819 0.158231 13.8713 0.444809 14.1601L14.9017 28.4929C15.0454 28.6358 15.2161 28.7489 15.404 28.8262C15.592 28.9034 15.7934 28.9428 15.9969 28.9426Z"/>
</svg>
