<svg xmlns="http://www.w3.org/2000/svg" viewBox="0 0 32 32" width="32" height="32" fill="none">
<g>
<mask id="vscode_mask" style="mask-type:alpha" maskUnits="userSpaceOnUse" x="0" y="0" width="32" height="32">
<path fill="white" fill-rule="evenodd" clip-rule="evenodd" d="M22.6918 31.7815C23.1958 31.9778 23.7705 31.9653 24.2792 31.7205L30.8675 28.5503C31.5597 28.2172 32 27.5165 32 26.7479V5.25226C32 4.48362 31.5598 3.78298 30.8675 3.44986L24.2792 0.279602C23.6116 -0.0416415 22.8303 0.037043 22.2443 0.463024C22.1606 0.523875 22.0809 0.591817 22.0061 0.666691L9.39363 12.1733L3.8999 8.00307C3.38848 7.61488 2.67316 7.64669 2.19819 8.07875L0.43617 9.68157C-0.144817 10.21 -0.145482 11.1241 0.43473 11.6534L5.19907 16L0.43473 20.3466C-0.145482 20.876 -0.144817 21.79 0.43617 22.3185L2.19819 23.9213C2.67316 24.3534 3.38848 24.3852 3.8999 23.997L9.39363 19.8268L22.0061 31.3333C22.2056 31.533 22.4399 31.6833 22.6918 31.7815ZM24.0049 8.73565L14.4349 16L24.0049 23.2644V8.73565Z"/>
</mask>
<g mask="url(#vscode_mask)">
<path fill="#0065A9" d="M30.8677 3.4547L24.2742 0.280093C23.511 -0.0873679 22.599 0.067635 22 0.666585L0.415556 20.3465C-0.165011 20.8759 -0.164344 21.7899 0.416996 22.3184L2.18008 23.9212C2.65535 24.3533 3.37111 24.3851 3.88283 23.9969L29.8755 4.27829C30.7475 3.61675 32 4.2387 32 5.33326V5.25672C32 4.4884 31.5599 3.78802 30.8677 3.4547Z"/>
<g filter="url(#vscode_filter_1)">
<path fill="#007ACC" d="M30.8677 28.5452L24.2742 31.7198C23.511 32.0874 22.599 31.9323 22 31.3333L0.415556 11.6534C-0.165011 11.1241 -0.164344 10.21 0.416996 9.68154L2.18008 8.07872C2.65535 7.64666 3.37111 7.61485 3.88283 8.00304L29.8755 27.7216C30.7475 28.3832 32 27.7612 32 26.6667V26.7432C32 27.5115 31.5599 28.2119 30.8677 28.5452Z"/>
</g>
<g filter="url(#vscode_filter_2)">
<path fill="#1F9CF0" d="M24.2745 31.7204C23.5111 32.0877 22.599 31.9323 22 31.3333C22.738 32.0714 24 31.5486 24 30.5049V1.49509C24 0.451334 22.738 -0.0713852 22 0.666662C22.599 0.0676573 23.5111 -0.0875644 24.2745 0.279571L30.8668 3.44983C31.5595 3.78295 32 4.48359 32 5.25223V26.7479C32 27.5165 31.5595 28.2172 30.8668 28.5503L24.2745 31.7204Z"/>
</g>
<g style="mix-blend-mode:overlay" opacity="0.25">
<path fill="url(#vscode_color)" fill-rule="evenodd" clip-rule="evenodd" d="M22.6724 31.7815C23.1764 31.9778 23.7511 31.9653 24.2598 31.7205L30.848 28.5504C31.5403 28.2172 31.9806 27.5166 31.9806 26.7479V5.25231C31.9806 4.48363 31.5403 3.78299 30.848 3.44987L24.2598 0.279632C23.5922 -0.0416108 22.8108 0.0370737 22.2249 0.463052C22.1412 0.523906 22.0615 0.591848 21.9866 0.666722L9.37419 12.1733L3.88046 8.00312C3.36907 7.6149 2.65372 7.64674 2.17875 8.07877L0.416731 9.68159C-0.164256 10.2101 -0.164922 11.1241 0.415291 11.6535L5.17963 16L0.415291 20.3467C-0.164922 20.876 -0.164256 21.79 0.416731 22.3185L2.17875 23.9213C2.65372 24.3534 3.36907 24.3852 3.88046 23.997L9.37419 19.8268L21.9866 31.3334C22.1862 31.533 22.4204 31.6834 22.6724 31.7815ZM23.9854 8.7357L14.4155 16L23.9854 23.2644V8.7357Z"/>
</g>
</g>
</g>
<defs>
<filter id="vscode_filter_1" x="-8.35278" y="-0.601376" width="48.6861" height="40.852" filterUnits="userSpaceOnUse" color-interpolation-filters="sRGB">
<feFlood flood-opacity="0" result="BackgroundImageFix"/>
<feColorMatrix in="SourceAlpha" type="matrix" values="0 0 0 0 0 0 0 0 0 0 0 0 0 0 0 0 0 0 127 0" result="hardAlpha"/>
<feOffset/>
<feGaussianBlur stdDeviation="4.16667"/>
<feColorMatrix type="matrix" values="0 0 0 0 0 0 0 0 0 0 0 0 0 0 0 0 0 0 0.25 0"/>
<feBlend mode="overlay" in2="BackgroundImageFix" result="vscode_dropshadow"/>
<feBlend mode="normal" in="SourceGraphic" in2="vscode_dropshadow" result="shape"/>
</filter>
<filter id="vscode_filter_2" x="13.6667" y="-8.25085" width="26.6667" height="48.5017" filterUnits="userSpaceOnUse" color-interpolation-filters="sRGB">
<feFlood flood-opacity="0" result="BackgroundImageFix"/>
<feColorMatrix in="SourceAlpha" type="matrix" values="0 0 0 0 0 0 0 0 0 0 0 0 0 0 0 0 0 0 127 0" result="hardAlpha"/>
<feOffset/>
<feGaussianBlur stdDeviation="4.16667"/>
<feColorMatrix type="matrix" values="0 0 0 0 0 0 0 0 0 0 0 0 0 0 0 0 0 0 0.25 0"/>
<feBlend mode="overlay" in2="BackgroundImageFix" result="vscode_dropshadow"/>
<feBlend mode="normal" in="SourceGraphic" in2="vscode_dropshadow" result="shape"/>
</filter>
<linearGradient id="vscode_color" x1="15.9806" y1="0.0825499" x2="15.9806" y2="31.9176" gradientUnits="userSpaceOnUse">
<stop stop-color="white"/>
<stop offset="1" stop-color="white" stop-opacity="0"/>
</linearGradient>
</defs>
</svg>
