<svg xmlns="http://www.w3.org/2000/svg" viewBox="0 0 32 19" width="32" height="19" fill="none">
<path fill="#252F3E" d="M9.04899 6.88472C9.04899 7.27421 9.09137 7.59002 9.16554 7.82161C9.25031 8.0532 9.35627 8.30584 9.50462 8.57953C9.5576 8.66375 9.57879 8.74796 9.57879 8.82165C9.57879 8.92692 9.51521 9.03219 9.37747 9.13745L8.70992 9.57958C8.61455 9.64274 8.51919 9.67432 8.43442 9.67432C8.32846 9.67432 8.2225 9.62168 8.11654 9.52694C7.96819 9.36904 7.84104 9.20061 7.73508 9.03218C7.62912 8.85323 7.52316 8.65322 7.4066 8.41111C6.58011 9.37957 5.5417 9.8638 4.29137 9.8638C3.40131 9.8638 2.69137 9.61116 2.17217 9.10587C1.65296 8.60059 1.38806 7.92687 1.38806 7.08473C1.38806 6.18996 1.70594 5.46361 2.3523 4.91622C2.99866 4.36883 3.85694 4.09513 4.94833 4.09513C5.30859 4.09513 5.67945 4.12671 6.07151 4.17934C6.46356 4.23198 6.86621 4.31619 7.29005 4.41093V3.64248C7.29005 2.84244 7.12051 2.28452 6.79203 1.95819C6.45296 1.63187 5.88078 1.47396 5.06488 1.47396C4.69402 1.47396 4.31256 1.51607 3.92051 1.61081C3.52846 1.70555 3.147 1.82135 2.77614 1.96872C2.6066 2.04241 2.47945 2.08452 2.40528 2.10557C2.33111 2.12662 2.27813 2.13715 2.23574 2.13715C2.0874 2.13715 2.01323 2.03188 2.01323 1.81082V1.29501C2.01323 1.12658 2.03442 1.00026 2.0874 0.926571C2.14038 0.852884 2.23574 0.779196 2.38409 0.705509C2.75495 0.516027 3.19998 0.358126 3.71919 0.231804C4.23839 0.0949564 4.78939 0.0317957 5.37217 0.0317957C6.63309 0.0317957 7.55495 0.316019 8.14833 0.884464C8.73111 1.45291 9.0278 2.31611 9.0278 3.47405V6.88472H9.04899ZM4.747 8.48479C5.09667 8.48479 5.45694 8.42163 5.83839 8.29531C6.21985 8.16899 6.55892 7.9374 6.84502 7.6216C7.01455 7.42159 7.1417 7.20053 7.20528 6.94788C7.26886 6.69524 7.31124 6.38997 7.31124 6.03206V5.58993C7.00396 5.51624 6.67548 5.45308 6.33641 5.41098C5.99733 5.36887 5.66886 5.34782 5.34038 5.34782C4.63045 5.34782 4.11124 5.48466 3.76157 5.76889C3.4119 6.05311 3.24237 6.45313 3.24237 6.97947C3.24237 7.47422 3.36952 7.84266 3.63442 8.0953C3.88872 8.35847 4.25958 8.48479 4.747 8.48479ZM13.2556 9.62168C13.0649 9.62168 12.9377 9.5901 12.853 9.51642C12.7682 9.45326 12.694 9.30588 12.6304 9.10587L10.1404 0.968678C10.0768 0.758143 10.045 0.621295 10.045 0.547608C10.045 0.379179 10.1298 0.284438 10.2993 0.284438H11.3377C11.5391 0.284438 11.6768 0.316019 11.751 0.389706C11.8357 0.452867 11.8993 0.600241 11.9629 0.80025L13.743 7.76897L15.396 0.80025C15.449 0.589715 15.5126 0.452867 15.5973 0.389706C15.6821 0.326545 15.8304 0.284438 16.0212 0.284438H16.8689C17.0702 0.284438 17.2079 0.316019 17.2927 0.389706C17.3775 0.452867 17.4516 0.600241 17.494 0.80025L19.1682 7.85319L21.0013 0.80025C21.0649 0.589715 21.1391 0.452867 21.2132 0.389706C21.298 0.326545 21.4357 0.284438 21.6265 0.284438H22.6119C22.7814 0.284438 22.8768 0.368652 22.8768 0.547608C22.8768 0.600241 22.8662 0.652875 22.8556 0.716036C22.845 0.779196 22.8238 0.863411 22.7814 0.979205L20.2278 9.1164C20.1642 9.32693 20.09 9.46378 20.0053 9.52694C19.9205 9.5901 19.7828 9.63221 19.6026 9.63221H18.6914C18.49 9.63221 18.3523 9.60063 18.2675 9.52694C18.1828 9.45326 18.1086 9.31641 18.0662 9.10587L16.4238 2.31611L14.792 9.09535C14.7391 9.30588 14.6755 9.44273 14.5907 9.51642C14.5059 9.5901 14.3576 9.62168 14.1669 9.62168H13.2556ZM26.8715 9.90591C26.3205 9.90591 25.7695 9.84275 25.2397 9.71643C24.7099 9.5901 24.2967 9.45326 24.0212 9.29535C23.8516 9.20061 23.7351 9.09535 23.6927 9.0006C23.6503 8.90586 23.6291 8.8006 23.6291 8.70585V8.16899C23.6291 7.94793 23.7139 7.84266 23.8728 7.84266C23.9364 7.84266 24 7.85319 24.0636 7.87424C24.1271 7.89529 24.2225 7.9374 24.3285 7.97951C24.6887 8.13741 25.0808 8.26373 25.494 8.34794C25.9179 8.43216 26.3311 8.47427 26.7549 8.47427C27.4225 8.47427 27.9417 8.35847 28.302 8.12688C28.6622 7.89529 28.853 7.55844 28.853 7.12684C28.853 6.83209 28.7576 6.58997 28.5669 6.38997C28.3761 6.18996 28.0159 6.011 27.4967 5.84257L25.9602 5.36887C25.1867 5.12675 24.6146 4.76884 24.2649 4.29514C23.9152 3.83196 23.7351 3.31615 23.7351 2.76876C23.7351 2.32663 23.8304 1.93714 24.0212 1.60028C24.2119 1.26343 24.4662 0.968678 24.7841 0.737089C25.102 0.494974 25.4622 0.316019 25.8861 0.189697C26.3099 0.063376 26.7549 0.0107422 27.2212 0.0107422C27.4543 0.0107422 27.698 0.021269 27.9311 0.0528493C28.1748 0.0844296 28.3973 0.126537 28.6199 0.168644C28.8318 0.221278 29.0331 0.273911 29.2238 0.337072C29.4146 0.400233 29.5629 0.463393 29.6689 0.526554C29.8172 0.610768 29.9232 0.694982 29.9867 0.789723C30.0503 0.873937 30.0821 0.989732 30.0821 1.13711V1.63186C30.0821 1.85293 29.9973 1.96872 29.8384 1.96872C29.7536 1.96872 29.6159 1.92661 29.4357 1.8424C28.8318 1.5687 28.1536 1.43186 27.4013 1.43186C26.7973 1.43186 26.3205 1.5266 25.992 1.72661C25.6636 1.92661 25.494 2.23189 25.494 2.66349C25.494 2.95824 25.6 3.21088 25.8119 3.41089C26.0238 3.6109 26.4159 3.81091 26.9775 3.98986L28.4821 4.46357C29.245 4.70568 29.796 5.04254 30.1245 5.47414C30.453 5.90573 30.6119 6.40049 30.6119 6.94788C30.6119 7.40054 30.5165 7.81108 30.3364 8.16899C30.1457 8.5269 29.8914 8.8427 29.5629 9.09535C29.2344 9.35852 28.8424 9.548 28.3867 9.68484C27.9099 9.83222 27.4119 9.90591 26.8715 9.90591Z" />
<path fill="#FF9900" d="M28.8742 15.022C25.3881 17.58 20.3232 18.938 15.9682 18.938C9.86489 18.938 4.36555 16.6958 0.211911 12.9693C-0.116566 12.6746 0.180123 12.2745 0.572176 12.5061C5.06489 15.0957 10.6066 16.6642 16.3391 16.6642C20.2066 16.6642 24.4556 15.8642 28.3656 14.222C28.9483 13.9588 29.4463 14.601 28.8742 15.022ZM30.3258 13.3799C29.8808 12.8114 27.3801 13.1062 26.2463 13.243C25.9073 13.2851 25.8543 12.9904 26.1616 12.7693C28.1536 11.3798 31.4278 11.7798 31.8093 12.243C32.1907 12.7167 31.7033 15.9694 29.8384 17.5274C29.5523 17.7695 29.2768 17.6432 29.404 17.3274C29.8278 16.2852 30.7709 13.9378 30.3258 13.3799Z" />
</svg>
