<svg xmlns="http://www.w3.org/2000/svg" viewBox="0 0 32 32" width="32" height="32" fill="none">
<rect fill="#0056D2" width="32" height="32" rx="16" />
<path fill="white" d="M5 16.0028C5 9.90103 10.0362 5.00028 16.3332 5.00028C18.2265 4.98713 20.0934 5.44077 21.7656 6.32031C23.4378 7.19986 24.8627 8.47765 25.912 10.0386L21.1907 12.7511C20.6444 11.9779 19.9172 11.3472 19.0714 10.9128C18.2255 10.4783 17.286 10.2531 16.3332 10.2564C13.0953 10.2564 10.4418 12.9294 10.4418 16.0028C10.4418 19.0761 13.0953 21.7491 16.3332 21.7491C17.3309 21.7555 18.3137 21.5087 19.1877 21.0318C20.0616 20.5551 20.7976 19.8644 21.3254 19.0257L26 21.7873C24.9635 23.3938 23.5332 24.7144 21.8425 25.6258C20.1516 26.5373 18.2554 27.0099 16.3304 26.9998C10.0321 27.0053 5 22.0106 5 16.0028Z" />
</svg>
