<svg xmlns="http://www.w3.org/2000/svg" viewBox="0 0 49 32" width="49" height="32" fill="none">
<rect fill="#0A0A23" width="49" height="32" />
<path fill="white" d="M38.3957 0.233476C38.1979 0.398283 38 0.63176 38 0.851502C38 1.24979 38.5606 1.79914 39.5994 2.67811C43.9358 6.15279 46.1122 10.3966 46.0957 15.5193C46.0793 21.1914 43.7874 25.7511 39.3355 29.267C38.3957 29.9674 38.0165 30.5167 38.0165 30.9837C38.0165 31.2172 38.2144 31.4506 38.3957 31.6841C38.5771 31.8489 38.9563 32 39.2366 32C40.2589 32 41.7099 30.9974 43.5895 29.0197C47.2499 25.2841 48.8987 21.1502 48.9977 15.533C49.0801 9.90215 46.9696 6.08412 42.8146 2.14249C41.3306 0.727897 40.0775 0 39.2366 0C38.9563 0 38.6595 0.0824034 38.3957 0.233476V0.233476Z" />
<path fill="white" d="M27.2447 16.7902C25.9845 16.4463 31.1398 9.86977 21.9876 2C21.9876 2 23.1842 6.1275 17.1379 15.3318C11.0789 24.5224 19.8237 29.9982 19.8237 29.9982C19.8237 29.9982 15.725 27.6318 20.4983 19.2117C21.3512 17.6845 22.4713 16.3087 23.8588 13.1855C23.8588 13.1855 25.0808 15.0704 24.4443 19.1291C23.4897 25.2791 28.6067 23.518 28.6831 23.6006C30.4779 25.8707 27.2065 29.8744 27.0029 29.9982C26.7992 30.122 36.3459 23.807 29.5614 14.2862C29.1031 14.7815 28.5049 17.1479 27.2447 16.7902V16.7902Z" />
<path fill="white" d="M8.68926 0.247104C8.85139 0.398112 9 0.631489 9 0.864865C9 1.26298 8.54064 1.79837 7.68947 2.67696C4.14968 6.15015 2.36628 10.3921 2.37979 15.5264C2.3933 21.1823 4.27127 25.74 7.91914 29.2681C8.67574 29.9545 9 30.5036 9 30.9704C9 31.2038 8.83788 31.4509 8.68926 31.6705C8.54064 31.8353 8.22989 32 8.0002 32C7.14903 32 5.97361 30.9841 4.4334 29.0073C1.43403 25.2733 0.0829694 21.1549 0.0019055 15.5264C-0.0656477 9.8979 1.66371 6.08151 5.0684 2.14157C6.28436 0.741313 7.31116 0 8.0002 0C8.22989 0 8.45958 0.0823681 8.68926 0.247104V0.247104Z" />
</svg>
