<svg xmlns="http://www.w3.org/2000/svg" viewBox="0 0 32 26" width="32" height="26" fill="none">
<path fill="#EA4335" d="M21.2815 7.17127L24.0631 4.36264L24.2485 3.18002C19.1796 -1.47385 11.122 -0.946156 6.5526 4.28111C5.28335 5.73294 4.34172 7.54297 3.8396 9.41207L4.83585 9.27033L10.399 8.34405L10.8285 7.90053C13.3031 5.1564 17.4872 4.78722 20.3445 7.12205L21.2815 7.17127Z" />
<path fill="#4285F4" d="M28.0256 9.32955C27.3862 6.95219 26.0736 4.81502 24.2484 3.18018L20.3444 7.12208C21.9929 8.48216 22.9321 10.5311 22.8918 12.6801V13.3799C24.8107 13.3799 26.3664 14.9506 26.3664 16.8881C26.3664 18.8257 24.8107 20.3571 22.8918 20.3571H15.9329L15.2497 21.106V25.314L15.9329 25.9742H22.8918C27.8831 26.0135 31.9608 21.9993 31.9997 16.9595C32.0232 13.9048 30.5316 11.041 28.0256 9.32955Z" />
<path fill="#34A853" d="M8.98383 25.974H15.933V20.3568H8.98383C8.4887 20.3567 8.0092 20.2493 7.55895 20.0415L6.57308 20.3469L3.77195 23.1556L3.52795 24.1115C5.09883 25.3092 7.01545 25.9826 8.98383 25.974Z" />
<path fill="#FBBC05" d="M8.98379 7.7525C3.99241 7.78254 -0.029586 11.8926 0.000163983 16.9323C0.016789 19.7466 1.31854 22.3958 3.52791 24.1114L7.55891 20.0414C5.81004 19.2436 5.03291 17.1655 5.82304 15.3998C6.61304 13.6341 8.67129 12.8494 10.4199 13.6471C11.1905 13.9986 11.8077 14.6218 12.1558 15.3998L16.1868 11.3298C14.4717 9.06588 11.8067 7.74228 8.98379 7.7525Z" />
</svg>
