<svg xmlns="http://www.w3.org/2000/svg" viewBox="0 0 48 32" width="48" height="32" fill="none">
<g>
<path fill="#0081FB" d="M5.18459 20.9845C5.18459 22.8137 5.58687 24.2181 6.11267 25.0677C6.80206 26.1806 7.8303 26.6521 8.87856 26.6521C10.2306 26.6521 11.4675 26.3172 13.8512 23.0269C15.7607 20.3897 18.0108 16.688 19.5248 14.3673L22.0887 10.4356C23.8698 7.70508 25.9313 4.66969 28.2949 2.61223C30.2245 0.932939 32.306 0 34.4009 0C37.9179 0 41.268 2.03414 43.832 5.8492C46.6379 10.0274 48 15.2902 48 20.7212C48 23.9499 47.3624 26.3222 46.2774 28.1964C45.2291 30.009 43.186 31.8199 39.7491 31.8199V26.6521C42.6919 26.6521 43.4263 23.9532 43.4263 20.8645C43.4263 16.463 42.3981 11.5784 40.133 8.08825C38.5255 5.61263 36.4423 4.09993 34.1505 4.09993C31.6717 4.09993 29.677 5.96581 27.4352 9.29274C26.2434 11.0603 25.0199 13.2144 23.6461 15.6451L22.1338 18.3189C19.0958 23.695 18.3263 24.9195 16.8073 26.9403C14.1449 30.4788 11.8715 31.8199 8.87856 31.8199C5.32814 31.8199 3.08304 30.2855 1.69259 27.9732C0.557518 26.089 0 23.6167 0 20.7995L5.18459 20.9845Z" />
<path fill="url(#meta_gradient_1)" d="M4.08792 6.21404C6.46489 2.55725 9.89513 0 13.8295 0C16.108 0 18.3731 0.673049 20.7384 2.60057C23.3256 4.70801 26.0832 8.17821 29.5234 13.8975L30.757 15.9499C33.7349 20.9012 35.4291 23.4484 36.4207 24.6496C37.6959 26.1923 38.589 26.6521 39.7491 26.6521C42.6919 26.6521 43.4264 23.9532 43.4264 20.8645L48 20.7212C48 23.9499 47.3624 26.3222 46.2774 28.1964C45.2291 30.009 43.186 31.8199 39.7491 31.8199C37.6125 31.8199 35.7196 31.3568 33.6264 29.3859C32.0173 27.8732 30.1361 25.186 28.6888 22.7704L24.3839 15.5934C22.224 11.9916 20.2426 9.30607 19.0958 8.08992C17.8623 6.78214 16.2765 5.2028 13.746 5.2028C11.6979 5.2028 9.95856 6.6372 8.503 8.83127L4.08792 6.21404Z" />
<path fill="url(#meta_gradient_2)" d="M13.746 5.2028C11.6979 5.2028 9.95855 6.6372 8.50299 8.83127C6.44485 11.9316 5.18459 16.5497 5.18459 20.9845C5.18459 22.8137 5.58687 24.2181 6.11267 25.0677L1.69259 27.9732C0.557518 26.089 0 23.6167 0 20.7995C0 15.6767 1.40882 10.3373 4.08791 6.21404C6.46488 2.55725 9.89512 0 13.8295 0L13.746 5.2028Z" />
</g>
<defs>
<linearGradient id="meta_gradient_1" x1="613.519" y1="1779.81" x2="3914.56" y2="1946.85" gradientUnits="userSpaceOnUse">
<stop stop-color="#0064E1"/>
<stop offset="0.4" stop-color="#0064E1"/>
<stop offset="0.83" stop-color="#0073EE"/>
<stop offset="1" stop-color="#0082FB"/>
</linearGradient>
<linearGradient id="meta_gradient_2" x1="751.148" y1="2315.69" x2="751.148" y2="1099.54" gradientUnits="userSpaceOnUse">
<stop stop-color="#0082FB"/>
<stop offset="1" stop-color="#0064E0"/>
</linearGradient>
</defs>
</svg>
