<svg xmlns="http://www.w3.org/2000/svg" viewBox="0 0 28 32" width="28" height="32" fill="none">
<path fill="#0AE98A" fill-rule="evenodd" clip-rule="evenodd" d="M12.2041 1.5016L1.48249 12.3663C0.533264 13.3283 0 14.6329 0 15.9933C0 17.3536 0.533264 18.6583 1.48249 19.6202L12.2174 30.4984C13.1666 31.4599 14.4538 32 15.7959 32C17.138 32 18.4252 31.4599 19.3744 30.4984L22.9523 26.8714L19.3744 23.2458L15.7952 26.8714L5.06034 15.9933L15.782 5.12856L22.939 12.3811L15.782 19.6323L19.3611 23.2593L26.5182 16.0067C27.467 15.0448 28 13.7405 28 12.3804C28 11.0204 27.467 9.71606 26.5182 8.75417L19.3611 1.5016C18.4119 0.54012 17.1247 0 15.7826 0C14.4405 0 13.1533 0.54012 12.2041 1.5016Z" />
</svg>
