<svg xmlns="http://www.w3.org/2000/svg" viewBox="0 0 132 43" width="132" height="43" fill="none">
<path fill="currentColor" d="M21.6629 1.07439C22.0177 1.50917 22.1987 2.09586 22.5606 3.26922L30.4672 28.9024C27.5439 27.4058 24.366 26.3264 21.0145 25.744L15.8665 8.57517C15.7823 8.29425 15.5208 8.10153 15.224 8.10153C14.9264 8.10153 14.6645 8.29526 14.5809 8.57714L9.49526 25.7354C6.12821 26.3151 2.9358 27.3965 0 28.8986L7.94537 3.26328C8.3084 2.09194 8.48994 1.50626 8.84484 1.07228C9.15812 0.689153 9.56565 0.391603 10.0285 0.207987C10.5529 0 11.1734 0 12.4146 0H18.0896C19.3323 0 19.9537 0 20.4785 0.208421C20.9418 0.392418 21.3496 0.69057 21.6629 1.07439Z" />
<path fill="currentColor" d="M22.6089 30.1225C21.3055 31.2225 18.7039 31.9726 15.7072 31.9726C12.0292 31.9726 8.94643 30.8426 8.1284 29.3228C7.83596 30.1938 7.77038 31.1906 7.77038 31.8275C7.77038 31.8275 7.57769 34.9544 9.7814 37.1293C9.7814 36 10.7091 35.0845 11.8533 35.0845C13.8146 35.0845 13.8124 36.7732 13.8106 38.1433C13.8106 38.1844 13.8105 38.2252 13.8105 38.2656C13.8105 40.3451 15.0984 42.1278 16.9298 42.8792C16.6563 42.3239 16.5028 41.7004 16.5028 41.0414C16.5028 39.0581 17.6827 38.3196 19.0539 37.4613C20.1449 36.7784 21.3571 36.0197 22.1925 34.4977C22.6284 33.7036 22.8759 32.794 22.8759 31.8275C22.8759 31.233 22.7823 30.6602 22.6089 30.1225Z" />
<path fill="currentColor" d="M48.6196 28.5014C51.9268 28.5014 54.4072 27.3402 55.4247 25.3632C55.4247 26.3046 55.488 27.2775 55.6472 28.0307H61.0846L61.0692 27.9629C60.8279 26.8819 60.706 25.4164 60.7035 23.5091L60.7034 18.6158C60.7034 14.0339 57.9684 11.8685 51.8951 11.8685C46.5844 11.8685 43.0229 14.0339 42.6096 17.5802H48.2698C48.4606 16.0424 49.7642 15.1951 51.8951 15.1951C53.9934 15.1951 55.1701 16.0424 55.1701 17.7999V18.2706L49.4147 18.7727C46.6442 19.0524 45.0582 19.5165 43.9468 20.2566L43.9133 20.2791C42.7368 21.0636 42.1326 22.2562 42.1326 23.7312C42.1326 26.6812 44.6129 28.5014 48.6196 28.5014ZM50.7184 25.2376C48.8738 25.2376 47.761 24.5158 47.761 23.3546C47.761 22.1621 48.683 21.5344 51.0047 21.252L55.2655 20.8126V21.7541C55.2655 23.8568 53.4213 25.2376 50.7184 25.2376ZM72.5535 28.5014C78.0868 28.5014 80.9168 26.4615 80.9168 23.1663C80.9168 20.436 79.3268 18.9296 75.4794 18.4275L70.6772 17.894C69.3102 17.7056 68.7377 17.3604 68.7377 16.6073C68.7377 15.6972 69.6597 15.2892 71.7585 15.2892C74.6522 15.2892 76.6556 15.9483 78.2777 17.235L80.853 14.6929C79.0722 12.8728 75.9881 11.8685 72.1723 11.8685C66.7981 11.8685 63.8089 13.7514 63.8089 16.9211C63.8089 19.6828 65.6531 21.2206 69.4689 21.7226L73.7939 22.2248C75.511 22.4445 76.0197 22.7584 76.0197 23.5743C76.0197 24.5158 75.0656 25.0179 72.8397 25.0179C69.5327 25.0179 67.3069 24.1392 65.8123 22.5073L62.8869 24.8924C64.8264 27.2775 68.1335 28.5014 72.5535 28.5014ZM85.4064 15.8855V22.5073C85.4064 26.3987 87.6322 28.3759 92.4022 28.3759C93.8652 28.3759 95.0097 28.219 96.091 27.9051V23.8253L95.9995 23.8451C95.4442 23.9637 94.7704 24.0764 93.8968 24.0764C91.8935 24.0764 90.9076 23.1977 90.9076 21.3461V15.8855H96.1226V12.3392H90.9076V6.59619L85.4064 8.60467V12.3392H81.8447V15.8855H85.4064ZM104.021 12.3392H98.9964V28.0307H104.498V22.1621C104.498 20.4673 104.879 18.9296 105.929 17.9567C106.756 17.2035 107.932 16.7956 109.586 16.7956C110.19 16.7956 110.667 16.8583 111.207 16.9211V11.994C110.858 11.9312 110.603 11.9312 110.158 11.9312C107.01 11.9312 104.879 13.7201 104.021 16.6387V12.3392ZM122.078 28.5014C127.898 28.5014 132 25.4573 132 20.1536C132 14.8812 127.898 11.8685 122.078 11.8685C116.227 11.8685 112.125 14.8812 112.125 20.1536C112.125 25.4573 116.227 28.5014 122.078 28.5014ZM122.078 24.8924C119.407 24.8924 117.722 23.1977 117.722 20.1536C117.722 17.1094 119.407 15.4775 122.078 15.4775C124.718 15.4775 126.403 17.1094 126.403 20.1536C126.403 23.1977 124.718 24.8924 122.078 24.8924Z" />
</svg>
