<svg xmlns="http://www.w3.org/2000/svg" viewBox="0 0 175 22" width="175" height="22" fill="none">
<path fill="currentColor" fill-rule="evenodd" clip-rule="evenodd" d="M18.0344 0C13.2252 0 10.2195 2.4 9.01718 7.2C10.8206 4.8 12.9246 3.9 15.3292 4.5C16.7011 4.842 17.6817 5.836 18.7671 6.93533C20.5351 8.72667 22.5817 10.8 27.0515 10.8C31.8607 10.8 34.8664 8.4 36.0687 3.6C34.2653 6 32.1613 6.9 29.7567 6.3C28.3847 5.958 27.4042 4.964 26.3188 3.86467C24.5508 2.07333 22.5042 0 18.0344 0ZM9.01718 10.8C4.20802 10.8 1.20229 13.2 0 18C1.80344 15.6 3.90744 14.7 6.31202 15.3C7.68397 15.6427 8.6645 16.636 9.7499 17.7353C11.5179 19.5267 13.5645 21.6 18.0344 21.6C22.8435 21.6 25.8492 19.2 27.0515 14.4C25.2481 16.8 23.1441 17.7 20.7395 17.1C19.3676 16.758 18.387 15.764 17.3016 14.6647C15.5336 12.8733 13.487 10.8 9.01718 10.8Z" />
<path fill="currentColor" fill-rule="evenodd" clip-rule="evenodd" d="M54.1004 9.1015H50.953V15.1815C50.953 16.8028 52.0191 16.7775 54.1004 16.6762V19.1335C49.887 19.6402 48.2118 18.4748 48.2118 15.1815V9.1015H45.8767V6.4668H48.2118V3.06414L50.953 2.25347V6.4668H54.1004V9.1015ZM66.0979 6.4668H68.8391V19.1335H66.0979V17.3095C65.1334 18.6522 63.6359 19.4628 61.6561 19.4628C58.2042 19.4628 55.3361 16.5495 55.3361 12.8002C55.3361 9.0255 58.2042 6.13747 61.6561 6.13747C63.6359 6.13747 65.1334 6.94816 66.0979 8.2655V6.4668ZM62.0876 16.8535C64.3719 16.8535 66.0979 15.1562 66.0979 12.8002C66.0979 10.4442 64.3719 8.74683 62.0876 8.74683C59.8032 8.74683 58.0773 10.4442 58.0773 12.8002C58.0773 15.1562 59.8032 16.8535 62.0876 16.8535ZM73.4078 4.5668C72.4433 4.5668 71.6565 3.75614 71.6565 2.8188C71.6571 2.35548 71.8422 1.91138 72.1701 1.58376C72.4988 1.25613 72.9436 1.07168 73.4078 1.0708C73.872 1.07168 74.3169 1.25613 74.6455 1.58376C74.9735 1.91138 75.1585 2.35548 75.1592 2.8188C75.1592 3.75614 74.3723 4.5668 73.4078 4.5668ZM72.0372 19.1335V6.4668H74.7784V19.1335H72.0372ZM77.9511 19.1335V0.640137H80.6924V19.1335H77.9511ZM98.4849 6.4668H101.378L97.3935 19.1335H94.703L92.0634 10.5962L89.3983 19.1335H86.7078L82.7229 6.4668H85.6164L88.0784 15.2068L90.7435 6.4668H93.3578L95.9975 15.2068L98.4849 6.4668ZM104.78 4.5668C103.815 4.5668 103.028 3.75614 103.028 2.8188C103.029 2.35548 103.214 1.91138 103.542 1.58376C103.871 1.25613 104.315 1.07168 104.78 1.0708C105.244 1.07168 105.689 1.25613 106.017 1.58376C106.345 1.91138 106.53 2.35548 106.531 2.8188C106.531 3.75614 105.744 4.5668 104.78 4.5668ZM103.409 19.1335V6.4668H106.15V19.1335H103.409ZM115.998 6.13747C118.841 6.13747 120.872 8.06283 120.872 11.3562V19.1335H118.13V11.6348C118.13 9.7095 117.014 8.69616 115.288 8.69616C113.485 8.69616 112.064 9.76016 112.064 12.3442V19.1335H109.323V6.4668H112.064V8.08816C112.902 6.77083 114.272 6.13747 115.998 6.13747ZM133.867 1.40014H136.608V19.1335H133.867V17.3095C132.902 18.6522 131.405 19.4628 129.425 19.4628C125.973 19.4628 123.105 16.5495 123.105 12.8002C123.105 9.0255 125.973 6.13747 129.425 6.13747C131.405 6.13747 132.902 6.94816 133.867 8.2655V1.40014ZM129.857 16.8535C132.141 16.8535 133.867 15.1562 133.867 12.8002C133.867 10.4442 132.141 8.74683 129.857 8.74683C127.572 8.74683 125.846 10.4442 125.846 12.8002C125.846 15.1562 127.572 16.8535 129.857 16.8535ZM145.796 19.4628C141.964 19.4628 139.096 16.5495 139.096 12.8002C139.096 9.0255 141.964 6.13747 145.796 6.13747C148.284 6.13747 150.441 7.4295 151.456 9.4055L149.096 10.7735C148.538 9.58283 147.294 8.82283 145.771 8.82283C143.537 8.82283 141.837 10.5202 141.837 12.8002C141.837 15.0802 143.537 16.7775 145.771 16.7775C147.294 16.7775 148.538 15.9922 149.147 14.8268L151.507 16.1695C150.441 18.1708 148.284 19.4628 145.796 19.4628ZM156.025 9.96283C156.025 12.2682 162.853 10.8748 162.853 15.5615C162.853 18.0948 160.645 19.4628 157.903 19.4628C155.365 19.4628 153.538 18.3228 152.726 16.4988L155.086 15.1308C155.492 16.2708 156.507 16.9548 157.903 16.9548C159.122 16.9548 160.061 16.5495 160.061 15.5362C160.061 13.2815 153.233 14.5482 153.233 10.0135C153.233 7.63216 155.289 6.13747 157.878 6.13747C159.959 6.13747 161.685 7.10016 162.574 8.77216L160.264 10.0642C159.807 9.07616 158.919 8.62016 157.878 8.62016C156.888 8.62016 156.025 9.05083 156.025 9.96283ZM167.726 9.96283C167.726 12.2682 174.554 10.8748 174.554 15.5615C174.554 18.0948 172.346 19.4628 169.604 19.4628C167.066 19.4628 165.239 18.3228 164.427 16.4988L166.787 15.1308C167.193 16.2708 168.208 16.9548 169.604 16.9548C170.823 16.9548 171.762 16.5495 171.762 15.5362C171.762 13.2815 164.934 14.5482 164.934 10.0135C164.934 7.63216 166.99 6.13747 169.579 6.13747C171.66 6.13747 173.386 7.10016 174.275 8.77216L171.965 10.0642C171.508 9.07616 170.62 8.62016 169.579 8.62016C168.589 8.62016 167.726 9.05083 167.726 9.96283Z" />
</svg>
